Coordinates
version=1
nRows=26
nColumns=22
inDegrees=yes

Units are S.I. units (second, meters, Newtons, ...)
If the header above contains a line with 'inDegrees', this indicates whether rotational values are in degrees (yes) or radians (no).

endheader
time	pelvis_tilt	pelvis_list	pelvis_rotation	pelvis_tx	pelvis_ty	pelvis_tz	hip_flexion_r	hip_adduction_r	hip_rotation_r	knee_angle_r	ankle_angle_r	subtalar_angle_r	hip_flexion_l	hip_adduction_l	hip_rotation_l	knee_angle_l	ankle_angle_l	subtalar_angle_l	lumbar_extension	lumbar_bending	lumbar_rotation
      0.01000000	     -6.70572586	     -2.65004928	      4.81834566	     -1.01727545	      0.88739417	     -0.52768435	      6.32607494	     -1.34272493	     -0.46429402	     -7.75825280	     12.73325376	     -0.11337722	      4.65293054	     -4.60021262	    -12.39441495	     -8.85795322	     13.49826257	      6.65768875	      4.09337341	      1.36668815	     10.33992593
      0.02000000	     -6.70839481	     -2.64970431	      4.80292082	     -1.01719377	      0.88739265	     -0.52775134	      6.32522652	     -1.34741934	     -0.46520732	     -7.75884354	     12.73263900	     -0.11379735	      4.64778062	     -4.59546031	    -12.39424073	     -8.86194955	     13.49912328	      6.65788667	      4.09737343	      1.37074827	     10.33254985
      0.03000000	     -6.71665943	     -2.64432442	      4.77963303	     -1.01710032	      0.88738433	     -0.52782071	      6.32891956	     -1.35815020	     -0.44928331	     -7.75757216	     12.73062171	     -0.11421316	      4.64088043	     -4.58349386	    -12.41743207	     -8.85366284	     13.50875934	      6.65659215	      4.10502788	      1.37032623	     10.29836476
      0.04000000	     -6.72027025	     -2.64477201	      4.75520853	     -1.01698918	      0.88738360	     -0.52789601	      6.32638400	     -1.36255004	     -0.44926911	     -7.75581959	     12.73085100	     -0.11421229	      4.63525700	     -4.57883793	    -12.41627745	     -8.86139920	     13.50918410	      6.65624831	      4.11076438	      1.37444709	     10.29083612
      0.05000000	     -6.73451158	     -2.63381401	      4.70571513	     -1.01686492	      0.88736751	     -0.52793278	      6.32256859	     -1.37661564	     -0.38247875	     -7.72727527	     12.72678914	     -0.10804788	      4.63861370	     -4.56470343	    -12.47524724	     -8.87675881	     13.52873012	      6.64083208	      4.12658991	      1.36450147	     10.28942372
      0.06000000	     -6.73880234	     -2.63587821	      4.67492573	     -1.01676703	      0.88736476	     -0.52801087	      6.32244367	     -1.37961531	     -0.38454060	     -7.72354218	     12.72674010	     -0.10780488	      4.63408515	     -4.56052771	    -12.47294843	     -8.88463591	     13.52938014	      6.63997647	      4.12701389	      1.36831206	     10.28039341
      0.07000000	     -6.74560740	     -2.63333324	      4.61637914	     -1.01665708	      0.88735532	     -0.52803602	      6.31169686	     -1.38303339	     -0.31217414	     -7.69073810	     12.71447262	     -0.09544424	      4.63928929	     -4.55828884	    -12.54230964	     -8.91903320	     13.56190905	      6.60817275	      4.13005028	      1.36524665	     10.28888936
      0.08000000	     -6.74959404	     -2.63639045	      4.58219518	     -1.01654931	      0.88735008	     -0.52810105	      6.31043995	     -1.38338112	     -0.31514680	     -7.68719640	     12.71448583	     -0.09504284	      4.63419738	     -4.55610759	    -12.53850478	     -8.92875909	     13.56254635	      6.60691884	      4.13074584	      1.36371229	     10.27953001
      0.09000000	     -6.74743082	     -2.63650156	      4.51595464	     -1.01644839	      0.88734579	     -0.52810997	      6.29225262	     -1.38190714	     -0.23500961	     -7.65372950	     12.70267008	     -0.07970252	      4.63670439	     -4.56011076	    -12.61836805	     -8.97978252	     13.60693244	      6.56131761	      4.12035070	      1.35861592	     10.29888787
      0.10000000	     -6.75086809	     -2.64071894	      4.47917664	     -1.01634230	      0.88733467	     -0.52817441	      6.29103608	     -1.38084146	     -0.23749600	     -7.65016171	     12.70264862	     -0.07919021	      4.63145160	     -4.55902827	    -12.61424290	     -8.99019582	     13.60779917	      6.55955675	      4.12001777	      1.35376116	     10.29017700
      0.11000000	     -6.73888220	     -2.63841211	      4.40381039	     -1.01625211	      0.88733997	     -0.52816775	      6.27001500	     -1.37947551	     -0.13022899	     -7.63077397	     12.69514147	     -0.06597637	      4.62634179	     -4.56226323	    -12.69615128	     -9.04800114	     13.66032430	      6.51594052	      4.09595723	      1.34278982	     10.31021071
      0.12000000	     -6.73132314	     -2.64485719	      4.31452024	     -1.01612003	      0.88734225	     -0.52816002	      6.25648549	     -1.36896560	     -0.05552005	     -7.61421420	     12.68301814	     -0.05295203	      4.60333394	     -4.57073386	    -12.78116988	     -9.06891186	     13.69049887	      6.45895382	      4.08408257	      1.34220301	     10.37455848
      0.13000000	     -6.72174710	     -2.64280233	      4.24560849	     -1.01601574	      0.88734231	     -0.52818670	      6.24134459	     -1.37081301	      0.01907304	     -7.60351640	     12.68368986	     -0.04567946	      4.59075915	     -4.56814665	    -12.81698020	     -9.10515562	     13.72087364	      6.42808654	      4.06716538	      1.32785083	     10.40757893
      0.14000000	     -6.71489408	     -2.64446600	      4.15384979	     -1.01585742	      0.88733839	     -0.52818324	      6.22805916	     -1.36533787	      0.10438130	     -7.59050491	     12.67775744	     -0.03716121	      4.56323079	     -4.56997585	    -12.90488319	     -9.11932051	     13.75833819	      6.38844723	      4.05993771	      1.31881888	     10.46600550
      0.15000000	     -6.70451823	     -2.64322209	      4.07710951	     -1.01575112	      0.88734227	     -0.52821409	      6.21727059	     -1.36607242	      0.19121058	     -7.58751438	     12.67457081	     -0.03068410	      4.54707998	     -4.56671036	    -12.93939159	     -9.15207179	     13.77902754	      6.36228717	      4.03947553	      1.30534807	     10.51253245
      0.16000000	     -6.70409845	     -2.64211155	      3.98528674	     -1.01556828	      0.88732868	     -0.52822893	      6.20687748	     -1.36606568	      0.27705368	     -7.57095345	     12.67277101	     -0.02310449	      4.51904089	     -4.56217254	    -13.02739669	     -9.15340896	     13.82197215	      6.33124601	      4.04069079	      1.29075439	     10.56573737
      0.17000000	     -6.69590867	     -2.64130016	      3.90937708	     -1.01545477	      0.88733069	     -0.52825820	      6.20037597	     -1.36689501	      0.36467392	     -7.57338327	     12.66722287	     -0.01594025	      4.50580795	     -4.56075277	    -13.06353920	     -9.18715993	     13.83801601	      6.30957257	      4.01952458	      1.27243692	     10.61492363
      0.18000000	     -6.70306710	     -2.64078152	      3.82686733	     -1.01528580	      0.88730619	     -0.52830368	      6.19889477	     -1.36946173	      0.43820165	     -7.55762909	     12.66661145	     -0.00791808	      4.48718326	     -4.55380602	    -13.13771539	     -9.18689869	     13.88113423	      6.28869746	      4.02282041	      1.25769939	     10.65009605
      0.19000000	     -6.70347038	     -2.64287562	      3.75749110	     -1.01518345	      0.88729639	     -0.52836232	      6.20130050	     -1.37038788	      0.50911175	     -7.55918937	     12.65973725	      0.00055597	      4.48365263	     -4.55286037	    -13.17373317	     -9.21860617	     13.89946557	      6.27506317	      4.00693573	      1.24317725	     10.69065575
      0.20000000	     -6.72028572	     -2.65032147	      3.69625426	     -1.01502514	      0.88725784	     -0.52842743	      6.20965921	     -1.36714181	      0.54262401	     -7.54513663	     12.65850279	      0.00889020	      4.47645679	     -4.55409976	    -13.23405936	     -9.21193502	     13.93046418	      6.26545677	      4.01950649	      1.23009559	     10.70430597
      0.21000000	     -6.72787224	     -2.65941378	      3.66138617	     -1.01491181	      0.88723509	     -0.52854148	      6.21177446	     -1.36603879	      0.53897612	     -7.54022079	     12.65851343	      0.00956998	      4.47299404	     -4.55534551	    -13.23155228	     -9.21861154	     13.93201085	      6.26518810	      4.01548236	      1.21948623	     10.69845206
      0.22000000	     -6.75919644	     -2.67514296	      3.57438960	     -1.01478093	      0.88717092	     -0.52856356	      6.24424021	     -1.35152740	      0.61110373	     -7.53270877	     12.63928939	      0.03464161	      4.48709307	     -4.57106004	    -13.33919677	     -9.23223882	     13.98054576	      6.25687712	      4.04271588	      1.21702213	     10.75954331
      0.23000000	     -6.78145369	     -2.68968082	      3.53460263	     -1.01463237	      0.88711920	     -0.52868351	      6.25604771	     -1.34637361	      0.59252066	     -7.51820785	     12.63912834	      0.04026694	      4.48211925	     -4.57569787	    -13.37156013	     -9.21383703	     13.99082411	      6.25639790	      4.06371728	      1.21405278	     10.75320715
      0.24000000	     -6.82703116	     -2.71687420	      3.47116818	     -1.01450503	      0.88703251	     -0.52874347	      6.30438478	     -1.32380827	      0.60969764	     -7.51478157	     12.61732921	      0.07275788	      4.50426274	     -4.59918450	    -13.44518755	     -9.20341873	     14.00793266	      6.25956711	      4.10969912	      1.22017552	     10.79296295
      0.25000000	     -6.85577128	     -2.73290742	      3.43509908	     -1.01431843	      0.88696511	     -0.52889279	      6.31557150	     -1.31996151	      0.57977914	     -7.49128754	     12.61953148	      0.07950862	      4.49433517	     -4.60225733	    -13.48755809	     -9.16775447	     14.02103444	      6.26001705	      4.14497263	      1.21956356	     10.78792925
      0.26000000	     -6.90770135	     -2.75792236	      3.37213066	     -1.01414117	      0.88687201	     -0.52898991	      6.36192228	     -1.30280138	      0.59745242	     -7.47885007	     12.59247143	      0.11748125	      4.50253755	     -4.61741661	    -13.56085627	     -9.12431148	     14.02304604	      6.26939997	      4.20609879	      1.22586371	     10.83345449
